<svg xmlns="http://www.w3.org/2000/svg" viewBox="0 0 524.37 721.37"><defs><style>.cls-1{fill:none;stroke:#000;stroke-miterlimit:10;}</style></defs><g id="图层_2" data-name="图层 2"><g id="图层_2-2" data-name="图层 2"><polygon class="cls-1" points="15.45 407.88 35.58 369.69 46.37 329.06 55 289.51 63.99 247.08 70.46 194.22 74.92 151.29 81.34 117.46 92.91 80.61 109.06 53.5 126.42 33.09 141.34 18.77 163.27 8.12 186.72 2.94 208.96 2.94 233.02 8.12 257.39 0.5 282.06 0.5 310.39 8.42 328.36 20.3 347.24 37.05 365.82 57.76 381.96 84.26 398.11 113.5 406.94 144.57 409.07 180.51 414.55 222.24 420.95 256.35 426.43 284.98 433.44 317.57 448.06 356.1 462.68 384.28 476.99 407.88 495.38 438.73 512.75 475.46 523.87 523.91 523.87 577.12 509.57 618.41 469.86 661.3 413.48 692.27 363.44 704.98 311.82 714.51 262.58 720.86 203.81 716.89 141.07 694.66 100.57 669.24 48.15 626.36 22.74 583.47 5.27 527.88 0.5 467.52 6.86 434.17 15.45 407.88"/></g></g></svg>