<svg xmlns="http://www.w3.org/2000/svg" viewBox="0 0 76.2 62.02"><defs><style>.cls-1{fill:none;}</style></defs><g id="图层_2" data-name="图层 2"><g id="发饰"><polygon class="cls-1" points="0 28.45 5.36 28.45 10.8 28.45 15.84 28.45 17.26 22.77 19.07 16.39 21.99 10.09 27.9 0 31.05 6.15 31.99 13 32.94 21.43 39.16 19.15 46.1 16.16 54.85 13.79 54.85 19.39 52.56 23.8 49.73 28.84 57.76 28.53 65.8 28.21 76.2 28.21 66.51 31.99 57.29 35.78 46.65 39.72 46.49 44.6 46.41 49.17 46.26 54.45 40.9 53.74 35.23 51.85 28.53 57.29 21.43 62.02 20.65 54.22 20.25 44.68 14.03 39.72 6.54 34.04 0 28.45"/></g></g></svg>