<svg xmlns="http://www.w3.org/2000/svg" viewBox="0 0 48.66 74.04"><defs><style>.cls-1{fill:none;}</style></defs><g id="图层_2" data-name="图层 2"><g id="脖子"><polygon class="cls-1" points="0 20.56 0 26.67 0 33.05 0 37.86 1.3 43.72 4.68 50.48 8.2 55.04 11.06 59.98 14.31 64.02 17.18 67.66 20.56 71.69 23.94 74.04 28.23 71.3 31.23 67.4 33.96 63.63 36.82 59.59 40.21 55.3 43.2 50.48 47.88 43.59 47.88 36.17 47.88 31.49 47.88 25.89 48.66 19.65 46.97 10.93 43.07 5.46 35.91 0.78 27.98 0 21.21 0.65 14.18 1.69 7.16 5.86 3.12 12.88 0 20.56"/></g></g></svg>